<svg width="45" height="51" viewBox="0 0 45 51" fill="none" xmlns="http://www.w3.org/2000/svg">
<circle cx="22.5" cy="28.5" r="22.5" fill="#052B9C"/>
<path d="M31.24 33.56C31.24 35.2667 30.4933 36.7067 29 37.88C27.5067 39.0533 25.6267 39.64 23.36 39.64C21.3867 39.64 19.6533 39.1333 18.16 38.12C16.6667 37.08 15.6 35.72 14.96 34.04L18.24 32.64C18.72 33.8133 19.4133 34.7333 20.32 35.4C21.2533 36.04 22.2667 36.36 23.36 36.36C24.5333 36.36 25.5067 36.1067 26.28 35.6C27.08 35.0933 27.48 34.4933 27.48 33.8C27.48 32.5467 26.52 31.6267 24.6 31.04L21.24 30.2C17.4267 29.24 15.52 27.4 15.52 24.68C15.52 22.8933 16.24 21.4667 17.68 20.4C19.1467 19.3067 21.0133 18.76 23.28 18.76C25.0133 18.76 26.5733 19.1733 27.96 20C29.3733 20.8267 30.36 21.9333 30.92 23.32L27.64 24.68C27.2667 23.8533 26.6533 23.2133 25.8 22.76C24.9733 22.28 24.04 22.04 23 22.04C22.04 22.04 21.1733 22.28 20.4 22.76C19.6533 23.24 19.28 23.8267 19.28 24.52C19.28 25.64 20.3333 26.44 22.44 26.92L25.4 27.68C29.2933 28.64 31.24 30.6 31.24 33.56Z" fill="#3366FF"/>
</svg>
